<svg width="144" height="144" viewBox="0 0 144 144" fill="none" xmlns="http://www.w3.org/2000/svg">
<path d="M71.9984 133.89C106.22 133.89 133.961 106.149 133.961 71.9277C133.961 37.7061 106.22 9.96495 71.9984 9.96495C37.7768 9.96495 10.0356 37.7061 10.0356 71.9277C10.0356 106.149 37.7768 133.89 71.9984 133.89Z" fill="#F3F5FF"/>
<path d="M86.2451 49.9373C88.0195 49.9373 89.4596 48.4972 89.4596 46.7228C89.4596 44.9484 88.0195 43.5083 86.2451 43.5083C84.4707 43.5083 83.0306 44.9484 83.0306 46.7228C83.0306 48.4972 84.4707 49.9373 86.2451 49.9373Z" fill="#22BE8D"/>
<path d="M91.4044 45.3309H120.136" stroke="black" stroke-width="0.5" stroke-linecap="round" stroke-linejoin="round"/>
<path d="M91.4044 47.5778H95.6668" stroke="black" stroke-width="0.5" stroke-linecap="round" stroke-linejoin="round"/>
<path d="M84.9561 47.0603L85.869 47.6807L87.5341 45.7616" stroke="white" stroke-width="0.5" stroke-linecap="round" stroke-linejoin="round"/>
<path d="M86.2451 60.9116C88.0195 60.9116 89.4596 59.4715 89.4596 57.6971C89.4596 55.9227 88.0195 54.4826 86.2451 54.4826C84.4707 54.4826 83.0306 55.9227 83.0306 57.6971C83.0306 59.4715 84.4707 60.9116 86.2451 60.9116Z" fill="#22BE8D"/>
<path d="M91.4044 56.3052H120.136" stroke="black" stroke-width="0.5" stroke-linecap="round" stroke-linejoin="round"/>
<path d="M91.4044 58.5521H95.6668" stroke="black" stroke-width="0.5" stroke-linecap="round" stroke-linejoin="round"/>
<path d="M84.9561 58.0346L85.869 58.655L87.5341 56.7359" stroke="white" stroke-width="0.5" stroke-linecap="round" stroke-linejoin="round"/>
<path d="M86.2451 71.8859C88.0195 71.8859 89.4596 70.4458 89.4596 68.6714C89.4596 66.897 88.0195 65.4569 86.2451 65.4569C84.4707 65.4569 83.0306 66.897 83.0306 68.6714C83.0306 70.4458 84.4707 71.8859 86.2451 71.8859Z" fill="#22BE8D"/>
<path d="M91.4044 67.2795H120.136" stroke="black" stroke-width="0.5" stroke-linecap="round" stroke-linejoin="round"/>
<path d="M91.4044 69.5297H95.6668" stroke="black" stroke-width="0.5" stroke-linecap="round" stroke-linejoin="round"/>
<path d="M84.9561 69.0089L85.869 69.6293L87.5341 67.7103" stroke="white" stroke-width="0.5" stroke-linecap="round" stroke-linejoin="round"/>
<path d="M50.0723 71.5516L62.1845 69.3786C65.7301 68.7421 69.295 70.4104 71.0758 73.5446L94.9178 115.475H56.7231L50.0755 71.5548L50.0723 71.5516Z" fill="#002EFF"/>
<path d="M56.257 115.475H94.4517L78.1542 86.8108H51.9174L56.257 115.475Z" fill="white"/>
<path d="M94.4517 115.937H56.257C56.0287 115.937 55.8326 115.77 55.8005 115.542L51.4609 86.8783C51.4416 86.7433 51.4802 86.6083 51.567 86.5054C51.6538 86.4026 51.7824 86.3447 51.9174 86.3447H78.1541C78.3213 86.3447 78.4756 86.4347 78.556 86.5794L94.8535 115.243C94.9338 115.388 94.9338 115.561 94.8535 115.706C94.7699 115.847 94.6188 115.937 94.4517 115.937Z" fill="white" stroke="black" stroke-width="0.5" stroke-linecap="round" stroke-linejoin="round"/>
<path d="M22.9644 84.3421L35.3306 67.8292C38.349 63.7982 44.0387 63.0685 47.9475 66.2155L53.724 70.8669L56.2409 68.1506H56.3534C61.1334 68.1506 65.2511 71.5773 66.1866 76.3412L68.3339 117.998H18.1812L22.9644 84.3421Z" fill="#002EFF"/>
<path d="M71.9888 100.444L64.7208 96.2357H75.2386C75.7079 96.2357 76.1322 96.4575 76.399 96.8401C76.6691 97.2258 76.7301 97.6983 76.5694 98.1387C76.068 99.5177 74.7468 100.444 73.281 100.444H71.9855H71.9888Z" fill="white"/>
<path d="M75.2418 96.4768C75.6308 96.4768 75.9844 96.66 76.2062 96.9783C76.428 97.2965 76.4826 97.6887 76.3476 98.0551C75.8815 99.3377 74.6504 100.199 73.2842 100.199H72.0563L65.6208 96.4736H75.2418M75.2418 95.9914H63.8271L71.9277 100.681H73.2874C74.8593 100.681 76.2673 99.6977 76.8041 98.2191C77.1963 97.1358 76.3958 95.9914 75.2451 95.9914H75.2418Z" fill="black"/>
<path d="M19.4734 118.31C15.3717 118.31 11.659 115.963 9.78492 112.186C7.91087 108.409 8.32232 104.137 10.8875 100.759L23.1605 84.5864C35.9767 84.625 41.0106 90.6811 41.7756 91.7161L34.0673 100.164L62.6956 96.2711C63.0717 96.2197 63.4124 96.1939 63.7403 96.1939C65.3443 96.1939 66.4501 96.7983 68.4592 97.8944C68.9607 98.1676 69.5168 98.473 70.1468 98.8009L81.1822 105.146C81.2401 105.178 81.2786 105.233 81.2915 105.297C81.3043 105.362 81.2883 105.426 81.2465 105.477C80.7 106.169 79.8835 106.564 79.0092 106.564C78.932 106.564 78.8549 106.564 78.7777 106.554C75.2675 106.265 69.3046 103.883 67.9674 103.147L66.2766 102.215L76.8137 112.08C76.9808 112.234 77.0612 112.456 77.0387 112.681C77.0162 112.906 76.8908 113.105 76.698 113.224C75.9779 113.668 75.155 113.899 74.3096 113.899C73.4063 113.899 72.532 113.636 71.783 113.134L71.6705 113.06L70.2722 113.71C69.6164 114.015 68.9189 114.169 68.1956 114.169C67.1798 114.169 66.1994 113.861 65.3669 113.279L61.2587 110.402C60.9533 110.187 60.5933 110.074 60.2204 110.074C60.0951 110.074 59.9729 110.087 59.8508 110.113L21.8393 118.065C21.0517 118.229 20.2578 118.313 19.4799 118.313H19.4734V118.31Z" fill="white"/>
<path d="M23.2794 84.8242C30.4059 84.866 35.0123 86.7915 37.6321 88.4116C39.8084 89.7585 41.0074 91.115 41.4606 91.6968L34.3373 99.5049L33.4404 100.485L34.7584 100.305L62.7278 96.5025C63.091 96.4543 63.4221 96.4286 63.7371 96.4286C65.2801 96.4286 66.3666 97.0233 68.3403 98.1001C68.8353 98.3701 69.3946 98.6755 70.0215 99.0066L81.0376 105.339C80.5361 105.96 79.7968 106.316 79.0028 106.316C78.9321 106.316 78.8613 106.316 78.7906 106.307C75.3125 106.021 69.4011 103.658 68.0767 102.928L64.6918 101.061L67.5141 103.703L76.6401 112.247C76.7494 112.35 76.8073 112.498 76.7912 112.649C76.7751 112.8 76.6915 112.932 76.563 113.012C75.8815 113.43 75.1004 113.652 74.3 113.652C73.4449 113.652 72.6156 113.401 71.9052 112.925L71.6801 112.774L71.4358 112.887L70.1597 113.478C69.5361 113.768 68.8739 113.915 68.186 113.915C67.2184 113.915 66.2894 113.623 65.4954 113.067L61.3873 110.19C61.0401 109.949 60.6351 109.82 60.2108 109.82C60.0694 109.82 59.9279 109.836 59.7897 109.865L21.7782 117.818C21.0067 117.979 20.2288 118.062 19.467 118.062C15.4585 118.062 11.8293 115.767 9.99387 112.07C8.1616 108.38 8.56341 104.201 11.0739 100.894L23.273 84.8178M23.0351 84.3356L10.6882 100.604C4.95031 108.165 10.6593 118.544 19.4638 118.544C20.2449 118.544 21.0485 118.464 21.8714 118.29L59.8829 110.338C59.989 110.315 60.0983 110.306 60.2044 110.306C60.5226 110.306 60.8376 110.402 61.1044 110.588L65.2126 113.465C66.0965 114.083 67.1348 114.401 68.1795 114.401C68.9189 114.401 69.6614 114.243 70.3558 113.919L71.6319 113.327C72.4355 113.864 73.3645 114.134 74.2935 114.134C75.1647 114.134 76.0358 113.896 76.8073 113.424C77.3505 113.089 77.4244 112.331 76.9616 111.897L67.8356 103.353C69.0828 104.041 75.0714 106.49 78.7424 106.789C78.826 106.795 78.9095 106.799 78.9963 106.799C79.9382 106.799 80.8318 106.368 81.4233 105.622C81.6001 105.4 81.5358 105.072 81.2915 104.931L70.2497 98.5823C67.1091 96.9365 65.8169 95.9464 63.7339 95.9464C63.3996 95.9464 63.046 95.9721 62.657 96.0236L34.6877 99.8263L42.0778 91.7258C42.0778 91.7258 37.3878 84.3356 23.0351 84.3356Z" fill="black"/>
<path d="M101.999 117.998H47.2403V115.979C47.2403 114.709 48.2721 113.681 49.5387 113.681H101.999V117.998Z" fill="black"/>
<path d="M80.7515 117.998H130.541L141.483 84.9271C142.541 81.7319 140.162 78.4403 136.796 78.4403H97.4058C95.2778 78.4403 93.3877 79.8064 92.7191 81.8251L80.7515 117.998Z" fill="black"/>
<path d="M49.2494 66.5755L57.816 67.0352L65.4826 69.5554L65.1933 70.764C63.8818 76.2447 57.6585 77.9516 54.2158 73.7728L49.2494 66.5755Z" fill="white"/>
<path d="M21.9486 102.003L36.3881 99.8328" stroke="black" stroke-width="0.5" stroke-linecap="round" stroke-linejoin="round"/>
<path d="M41.4413 92.0665L49.6512 83.4742" stroke="black" stroke-width="0.5" stroke-linecap="round" stroke-linejoin="round"/>
<path d="M61.9177 68.2792L65.4826 69.5554" stroke="black" stroke-width="0.5" stroke-linecap="round" stroke-linejoin="round"/>
<path d="M64.38 101.096L67.4113 102.98" stroke="black" stroke-width="0.5" stroke-linecap="round" stroke-linejoin="round"/>
<path d="M64.2064 106.464L71.8023 113.167" stroke="black" stroke-width="0.5" stroke-linecap="round" stroke-linejoin="round"/>
<path d="M73.4449 42.4893C73.4449 42.4893 76.248 43.6401 75.5794 45.7777C75.0747 47.3914 72.6477 47.0667 72.6477 47.0667L70.8026 43.0968L73.4482 42.4893H73.4449Z" fill="black"/>
<path d="M50.8598 49.1111C51.0206 48.1468 51.2359 47.5585 51.2359 47.5585L56.7134 38.1111L65.8523 36.4782L71.4198 41.9042C71.4198 41.9042 72.937 44.0547 73.6989 47.3946C75.0747 46.8192 76.8137 46.7324 77.5788 49.3329C78.2859 51.7374 75.7658 53.6275 73.8692 53.8943C73.6989 54.8458 73.4321 55.8262 73.0463 56.8292C71.0469 62.0206 66.4759 64.0618 61.9145 63.4575L61.9241 68.2792L65.4858 69.5554L64.4957 72.5224C64.0007 74.001 62.8081 75.1422 61.307 75.5697C58.7964 76.2865 56.1027 75.9233 53.8686 74.5732C51.5895 73.1942 49.8344 71.0983 48.8765 68.6135L47.9539 66.2155L51.5702 66.6977L52.3031 57.1152C51.956 56.5302 51.6795 55.9452 51.4609 55.3666C49.6447 55.8295 45.9577 53.9072 46.6392 51.0559C47.3399 48.1307 49.4101 48.4522 50.863 49.1047V49.1111H50.8598Z" fill="white" stroke="black" stroke-width="0.5" stroke-miterlimit="10"/>
<path d="M51.2681 50.9241C51.2681 50.9241 55.5401 47.7611 55.3023 43.2447C55.3023 43.2447 60.7669 41.9589 62.1427 39.892C62.1427 39.892 66.1416 43.4343 68.1474 42.1067C69.2661 41.3674 67.9867 39.7119 67.9867 39.7119C67.9867 39.7119 71.1272 43.7236 74.0782 43.2865C76.833 42.8782 76.5983 40.5381 74.1457 39.188C72.4548 38.259 69.1728 37.8379 69.1728 37.8379C69.1728 37.8379 71.9919 35.3081 70.044 34.0609C68.7453 33.2315 65.2929 35.9735 63.1746 36.0538C61.0562 36.1342 58.0378 36.4428 56.617 37.2593C56.617 37.2593 58.2789 34.4273 55.9869 33.8005C54.5211 33.3987 53.4346 37.4039 52.4542 39.3391C51.4738 41.271 48.0986 47.8832 50.0273 51.1331L51.2616 50.9273H51.2681V50.9241Z" fill="black"/>
<path d="M74.0653 52.9268L73.7599 47.6903L71.4808 47.5618L70.4619 52.136L74.0653 52.9268Z" fill="white"/>
<path d="M50.3487 53.0553L48.4554 50.4291" stroke="black" stroke-width="0.5" stroke-miterlimit="10" stroke-linecap="round"/>
<path d="M49.6672 52.1103L48.6965 52.8078" stroke="black" stroke-width="0.5" stroke-miterlimit="10" stroke-linecap="round"/>
<path d="M74.0942 51.8531L75.3511 48.8701" stroke="black" stroke-width="0.5" stroke-miterlimit="10" stroke-linecap="round"/>
<path d="M74.5475 50.7763L75.6468 51.2424" stroke="black" stroke-width="0.5" stroke-miterlimit="10" stroke-linecap="round"/>
</svg>
